<?xml version="1.0" encoding="UTF-8" standalone="no"?>
<svg
   width="297mm"
   height="210mm"
   viewBox="0 0 841.88976 595.27559"
   version="1.1"
   id="svg232"
   sodipodi:docname="P_1_84.svg"
   inkscape:version="1.2.2 (b0a8486541, 2022-12-01)"
   xmlns:inkscape="http://www.inkscape.org/namespaces/inkscape"
   xmlns:sodipodi="http://sodipodi.sourceforge.net/DTD/sodipodi-0.dtd"
   xmlns="http://www.w3.org/2000/svg"
   xmlns:svg="http://www.w3.org/2000/svg">
  <defs
     id="defs236" />
  <sodipodi:namedview
     id="namedview234"
     pagecolor="#ffffff"
     bordercolor="#666666"
     borderopacity="1.0"
     inkscape:showpageshadow="2"
     inkscape:pageopacity="0.0"
     inkscape:pagecheckerboard="0"
     inkscape:deskcolor="#d1d1d1"
     inkscape:document-units="pt"
     showgrid="false"
     inkscape:zoom="1.1009789"
     inkscape:cx="554.50652"
     inkscape:cy="458.68271"
     inkscape:window-width="2560"
     inkscape:window-height="1369"
     inkscape:window-x="2552"
     inkscape:window-y="-8"
     inkscape:window-maximized="1"
     inkscape:current-layer="g230" />
  <g
     class="svglite"
     id="g230">
    <defs
       id="defs4">
      <style
         type="text/css"
         id="style2"><![CDATA[
    .svglite line, .svglite polyline, .svglite polygon, .svglite path, .svglite rect, .svglite circle {
      fill: none;
      stroke: #000000;
      stroke-linecap: round;
      stroke-linejoin: round;
      stroke-miterlimit: 10.00;
    }
    .svglite text {
      white-space: pre;
    }
    .svglite g.glyphgroup path {
      fill: inherit;
      stroke: none;
    }
  ]]></style>
    </defs>
    <rect
       width="100%"
       height="100%"
       style="fill:#ffffff;stroke:none"
       id="rect6"
       x="0"
       y="0" />
    <defs
       id="defs11">
      <clipPath
         id="cpMC4wMHw1MDQuMDB8MC4wMHwzNjAuMDA=">
        <rect
           x="0"
           y="0"
           width="504"
           height="360"
           id="rect8" />
      </clipPath>
    </defs>
    <g
       clip-path="url(#cpMC4wMHw1MDQuMDB8MC4wMHwzNjAuMDA=)"
       id="g15"
       transform="matrix(1.389264,0,0,1.389264,76.295738,82.426645)">
      <rect
         x="0"
         y="0"
         width="504"
         height="360"
         style="fill:#ffffff;stroke:none;stroke-width:1.07"
         id="rect13" />
    </g>
    <defs
       id="defs20">
      <clipPath
         id="cpMzguNDl8NDI0LjM0fDUuNDh8MzI4LjUw">
        <rect
           x="38.490002"
           y="5.48"
           width="385.85999"
           height="323.01999"
           id="rect17" />
      </clipPath>
    </defs>
    <g
       clip-path="url(#cpMzguNDl8NDI0LjM0fDUuNDh8MzI4LjUw)"
       id="g186"
       transform="matrix(1.389264,0,0,1.389264,76.295738,82.426645)">
      <polyline
         points="38.49,271.64 424.34,271.64 "
         style="stroke:#ebebeb;stroke-width:0.53;stroke-linecap:butt"
         id="polyline22" />
      <polyline
         points="38.49,208.49 424.34,208.49 "
         style="stroke:#ebebeb;stroke-width:0.53;stroke-linecap:butt"
         id="polyline24" />
      <polyline
         points="38.49,145.33 424.34,145.33 "
         style="stroke:#ebebeb;stroke-width:0.53;stroke-linecap:butt"
         id="polyline26" />
      <polyline
         points="38.49,82.18 424.34,82.18 "
         style="stroke:#ebebeb;stroke-width:0.53;stroke-linecap:butt"
         id="polyline28" />
      <polyline
         points="38.49,19.02 424.34,19.02 "
         style="stroke:#ebebeb;stroke-width:0.53;stroke-linecap:butt"
         id="polyline30" />
      <polyline
         points="68.25,328.50 68.25,5.48 "
         style="stroke:#ebebeb;stroke-width:0.53;stroke-linecap:butt"
         id="polyline32" />
      <polyline
         points="175.89,328.50 175.89,5.48 "
         style="stroke:#ebebeb;stroke-width:0.53;stroke-linecap:butt"
         id="polyline34" />
      <polyline
         points="283.53,328.50 283.53,5.48 "
         style="stroke:#ebebeb;stroke-width:0.53;stroke-linecap:butt"
         id="polyline36" />
      <polyline
         points="391.17,328.50 391.17,5.48 "
         style="stroke:#ebebeb;stroke-width:0.53;stroke-linecap:butt"
         id="polyline38" />
      <polyline
         points="38.49,303.22 424.34,303.22 "
         style="stroke:#ebebeb;stroke-width:1.07;stroke-linecap:butt"
         id="polyline40" />
      <polyline
         points="38.49,240.07 424.34,240.07 "
         style="stroke:#ebebeb;stroke-width:1.07;stroke-linecap:butt"
         id="polyline42" />
      <polyline
         points="38.49,176.91 424.34,176.91 "
         style="stroke:#ebebeb;stroke-width:1.07;stroke-linecap:butt"
         id="polyline44" />
      <polyline
         points="38.49,113.75 424.34,113.75 "
         style="stroke:#ebebeb;stroke-width:1.07;stroke-linecap:butt"
         id="polyline46" />
      <polyline
         points="38.49,50.60 424.34,50.60 "
         style="stroke:#ebebeb;stroke-width:1.07;stroke-linecap:butt"
         id="polyline48" />
      <polyline
         points="122.07,328.50 122.07,5.48 "
         style="stroke:#ebebeb;stroke-width:1.07;stroke-linecap:butt"
         id="polyline50" />
      <polyline
         points="229.71,328.50 229.71,5.48 "
         style="stroke:#ebebeb;stroke-width:1.07;stroke-linecap:butt"
         id="polyline52" />
      <polyline
         points="337.35,328.50 337.35,5.48 "
         style="stroke:#ebebeb;stroke-width:1.07;stroke-linecap:butt"
         id="polyline54" />
      <circle
         cx="121.02"
         cy="79.160004"
         r="3.5599999"
         style="fill:#2ca02c;fill-opacity:0.8;stroke:#2ca02c;stroke-width:0.71;stroke-opacity:0.8"
         id="circle56" />
      <circle
         cx="78.900002"
         cy="205.33"
         r="3.5599999"
         style="fill:#1f77b4;fill-opacity:0.8;stroke:#1f77b4;stroke-width:0.71;stroke-opacity:0.8"
         id="circle58" />
      <circle
         cx="68.290001"
         cy="233.75999"
         r="3.5599999"
         style="fill:#1f77b4;fill-opacity:0.8;stroke:#1f77b4;stroke-width:0.71;stroke-opacity:0.8"
         id="circle60" />
      <circle
         cx="93.949997"
         cy="249.03"
         r="3.5599999"
         style="fill:#1f77b4;fill-opacity:0.8;stroke:#1f77b4;stroke-width:0.71;stroke-opacity:0.8"
         id="circle62" />
      <circle
         cx="85.470001"
         cy="195.06"
         r="3.5599999"
         style="fill:#1f77b4;fill-opacity:0.8;stroke:#1f77b4;stroke-width:0.71;stroke-opacity:0.8"
         id="circle64" />
      <circle
         cx="89.050003"
         cy="247.42999"
         r="3.5599999"
         style="fill:#1f77b4;fill-opacity:0.8;stroke:#1f77b4;stroke-width:0.71;stroke-opacity:0.8"
         id="circle66" />
      <circle
         cx="129.58"
         cy="87.730003"
         r="3.5599999"
         style="fill:#2ca02c;fill-opacity:0.8;stroke:#2ca02c;stroke-width:0.71;stroke-opacity:0.8"
         id="circle68" />
      <circle
         cx="81.169998"
         cy="210.27"
         r="3.5599999"
         style="fill:#1f77b4;fill-opacity:0.8;stroke:#1f77b4;stroke-width:0.71;stroke-opacity:0.8"
         id="circle70" />
      <circle
         cx="82.190002"
         cy="245.06"
         r="3.5599999"
         style="fill:#1f77b4;fill-opacity:0.8;stroke:#1f77b4;stroke-width:0.71;stroke-opacity:0.8"
         id="circle72" />
      <circle
         cx="94.169998"
         cy="221.95"
         r="3.5599999"
         style="fill:#1f77b4;fill-opacity:0.8;stroke:#1f77b4;stroke-width:0.71;stroke-opacity:0.8"
         id="circle74" />
      <circle
         cx="114.09"
         cy="45.369999"
         r="3.5599999"
         style="fill:#2ca02c;fill-opacity:0.8;stroke:#2ca02c;stroke-width:0.71;stroke-opacity:0.8"
         id="circle76" />
      <circle
         cx="103.11"
         cy="35.630001"
         r="3.5599999"
         style="fill:#2ca02c;fill-opacity:0.8;stroke:#2ca02c;stroke-width:0.71;stroke-opacity:0.8"
         id="circle78" />
      <circle
         cx="109.79"
         cy="64.709999"
         r="3.5599999"
         style="fill:#2ca02c;fill-opacity:0.8;stroke:#2ca02c;stroke-width:0.71;stroke-opacity:0.8"
         id="circle80" />
      <circle
         cx="104.6"
         cy="31.76"
         r="3.5599999"
         style="fill:#2ca02c;fill-opacity:0.8;stroke:#2ca02c;stroke-width:0.71;stroke-opacity:0.8"
         id="circle82" />
      <circle
         cx="103.4"
         cy="57.610001"
         r="3.5599999"
         style="fill:#2ca02c;fill-opacity:0.8;stroke:#2ca02c;stroke-width:0.71;stroke-opacity:0.8"
         id="circle84" />
      <circle
         cx="101.73"
         cy="47.509998"
         r="3.5599999"
         style="fill:#2ca02c;fill-opacity:0.8;stroke:#2ca02c;stroke-width:0.71;stroke-opacity:0.8"
         id="circle86" />
      <circle
         cx="98.480003"
         cy="69.540001"
         r="3.5599999"
         style="fill:#2ca02c;fill-opacity:0.8;stroke:#2ca02c;stroke-width:0.71;stroke-opacity:0.8"
         id="circle88" />
      <circle
         cx="108.04"
         cy="29.440001"
         r="3.5599999"
         style="fill:#2ca02c;fill-opacity:0.8;stroke:#2ca02c;stroke-width:0.71;stroke-opacity:0.8"
         id="circle90" />
      <circle
         cx="73.730003"
         cy="234.92"
         r="3.5599999"
         style="fill:#1f77b4;fill-opacity:0.8;stroke:#1f77b4;stroke-width:0.71;stroke-opacity:0.8"
         id="circle92" />
      <circle
         cx="101.03"
         cy="94.029999"
         r="3.5599999"
         style="fill:#2ca02c;fill-opacity:0.8;stroke:#2ca02c;stroke-width:0.71;stroke-opacity:0.8"
         id="circle94" />
      <circle
         cx="81.32"
         cy="213.78999"
         r="3.5599999"
         style="fill:#1f77b4;fill-opacity:0.8;stroke:#1f77b4;stroke-width:0.71;stroke-opacity:0.8"
         id="circle96" />
      <circle
         cx="100.92"
         cy="240.28"
         r="3.5599999"
         style="fill:#1f77b4;fill-opacity:0.8;stroke:#1f77b4;stroke-width:0.71;stroke-opacity:0.8"
         id="circle98" />
      <circle
         cx="66.110001"
         cy="233.98"
         r="3.5599999"
         style="fill:#1f77b4;fill-opacity:0.8;stroke:#1f77b4;stroke-width:0.71;stroke-opacity:0.8"
         id="circle100" />
      <circle
         cx="56.029999"
         cy="241.03999"
         r="3.5599999"
         style="fill:#1f77b4;fill-opacity:0.8;stroke:#1f77b4;stroke-width:0.71;stroke-opacity:0.8"
         id="circle102" />
      <circle
         cx="97.879997"
         cy="243.83"
         r="3.5599999"
         style="fill:#1f77b4;fill-opacity:0.8;stroke:#1f77b4;stroke-width:0.71;stroke-opacity:0.8"
         id="circle104" />
      <circle
         cx="96.559998"
         cy="206.12"
         r="3.5599999"
         style="fill:#1f77b4;fill-opacity:0.8;stroke:#1f77b4;stroke-width:0.71;stroke-opacity:0.8"
         id="circle106" />
      <circle
         cx="107.55"
         cy="249.35001"
         r="3.5599999"
         style="fill:#1f77b4;fill-opacity:0.8;stroke:#1f77b4;stroke-width:0.71;stroke-opacity:0.8"
         id="circle108" />
      <circle
         cx="102.46"
         cy="216.05"
         r="3.5599999"
         style="fill:#1f77b4;fill-opacity:0.8;stroke:#1f77b4;stroke-width:0.71;stroke-opacity:0.8"
         id="circle110" />
      <circle
         cx="74.040001"
         cy="210.13"
         r="3.5599999"
         style="fill:#1f77b4;fill-opacity:0.8;stroke:#1f77b4;stroke-width:0.71;stroke-opacity:0.8"
         id="circle112" />
      <circle
         cx="100.45"
         cy="79.849998"
         r="3.5599999"
         style="fill:#2ca02c;fill-opacity:0.8;stroke:#2ca02c;stroke-width:0.71;stroke-opacity:0.8"
         id="circle114" />
      <circle
         cx="95.730003"
         cy="213.10001"
         r="3.5599999"
         style="fill:#1f77b4;fill-opacity:0.8;stroke:#1f77b4;stroke-width:0.71;stroke-opacity:0.8"
         id="circle116" />
      <circle
         cx="107"
         cy="238.77"
         r="3.5599999"
         style="fill:#1f77b4;fill-opacity:0.8;stroke:#1f77b4;stroke-width:0.71;stroke-opacity:0.8"
         id="circle118" />
      <circle
         cx="88.25"
         cy="230.82001"
         r="3.5599999"
         style="fill:#1f77b4;fill-opacity:0.8;stroke:#1f77b4;stroke-width:0.71;stroke-opacity:0.8"
         id="circle120" />
      <circle
         cx="105.92"
         cy="240.09"
         r="3.5599999"
         style="fill:#1f77b4;fill-opacity:0.8;stroke:#1f77b4;stroke-width:0.71;stroke-opacity:0.8"
         id="circle122" />
      <circle
         cx="96.260002"
         cy="246.02"
         r="3.5599999"
         style="fill:#1f77b4;fill-opacity:0.8;stroke:#1f77b4;stroke-width:0.71;stroke-opacity:0.8"
         id="circle124" />
      <circle
         cx="89.82"
         cy="202.33"
         r="3.5599999"
         style="fill:#1f77b4;fill-opacity:0.8;stroke:#1f77b4;stroke-width:0.71;stroke-opacity:0.8"
         id="circle126" />
      <circle
         cx="104.12"
         cy="295.5"
         r="3.5599999"
         style="fill:#1f77b4;fill-opacity:0.8;stroke:#1f77b4;stroke-width:0.71;stroke-opacity:0.8"
         id="circle128" />
      <circle
         cx="122.17"
         cy="54.139999"
         r="3.5599999"
         style="fill:#2ca02c;fill-opacity:0.8;stroke:#2ca02c;stroke-width:0.71;stroke-opacity:0.8"
         id="circle130" />
      <circle
         cx="121.91"
         cy="139.11"
         r="3.5599999"
         style="fill:#1f77b4;fill-opacity:0.8;stroke:#1f77b4;stroke-width:0.71;stroke-opacity:0.8"
         id="circle132" />
      <circle
         cx="74.699997"
         cy="111.29"
         r="3.5599999"
         style="fill:#1f77b4;fill-opacity:0.8;stroke:#1f77b4;stroke-width:0.71;stroke-opacity:0.8"
         id="circle134" />
      <circle
         cx="130.12"
         cy="105.19"
         r="3.5599999"
         style="fill:#1f77b4;fill-opacity:0.8;stroke:#1f77b4;stroke-width:0.71;stroke-opacity:0.8"
         id="circle136" />
      <circle
         cx="103.45"
         cy="91.760002"
         r="3.5599999"
         style="fill:#1f77b4;fill-opacity:0.8;stroke:#1f77b4;stroke-width:0.71;stroke-opacity:0.8"
         id="circle138" />
      <circle
         cx="383.01999"
         cy="210.21001"
         r="3.5599999"
         style="fill:#ffbb78;fill-opacity:0.8;stroke:#ffbb78;stroke-width:0.71;stroke-opacity:0.8"
         id="circle140" />
      <circle
         cx="105.84"
         cy="98.639999"
         r="3.5599999"
         style="fill:#1f77b4;fill-opacity:0.8;stroke:#1f77b4;stroke-width:0.71;stroke-opacity:0.8"
         id="circle142" />
      <circle
         cx="103.97"
         cy="210.91"
         r="3.5599999"
         style="fill:#1f77b4;fill-opacity:0.8;stroke:#1f77b4;stroke-width:0.71;stroke-opacity:0.8"
         id="circle144" />
      <circle
         cx="350.82001"
         cy="175.94"
         r="3.5599999"
         style="fill:#ffbb78;fill-opacity:0.8;stroke:#ffbb78;stroke-width:0.71;stroke-opacity:0.8"
         id="circle146" />
      <circle
         cx="379.19"
         cy="200.64999"
         r="3.5599999"
         style="fill:#ffbb78;fill-opacity:0.8;stroke:#ffbb78;stroke-width:0.71;stroke-opacity:0.8"
         id="circle148" />
      <circle
         cx="368.98001"
         cy="189.87"
         r="3.5599999"
         style="fill:#ffbb78;fill-opacity:0.8;stroke:#ffbb78;stroke-width:0.71;stroke-opacity:0.8"
         id="circle150" />
      <circle
         cx="397.06"
         cy="170.96001"
         r="3.5599999"
         style="fill:#ffbb78;fill-opacity:0.8;stroke:#ffbb78;stroke-width:0.71;stroke-opacity:0.8"
         id="circle152" />
      <circle
         cx="402.54999"
         cy="174.21001"
         r="3.5599999"
         style="fill:#ffbb78;fill-opacity:0.8;stroke:#ffbb78;stroke-width:0.71;stroke-opacity:0.8"
         id="circle154" />
      <circle
         cx="88.389999"
         cy="223.56"
         r="3.5599999"
         style="fill:#1f77b4;fill-opacity:0.8;stroke:#1f77b4;stroke-width:0.71;stroke-opacity:0.8"
         id="circle156" />
      <circle
         cx="87.290001"
         cy="245.46001"
         r="3.5599999"
         style="fill:#1f77b4;fill-opacity:0.8;stroke:#1f77b4;stroke-width:0.71;stroke-opacity:0.8"
         id="circle158" />
      <circle
         cx="98.5"
         cy="246.06"
         r="3.5599999"
         style="fill:#1f77b4;fill-opacity:0.8;stroke:#1f77b4;stroke-width:0.71;stroke-opacity:0.8"
         id="circle160" />
      <circle
         cx="87.07"
         cy="249.75"
         r="3.5599999"
         style="fill:#1f77b4;fill-opacity:0.8;stroke:#1f77b4;stroke-width:0.71;stroke-opacity:0.8"
         id="circle162" />
      <circle
         cx="70.949997"
         cy="229.71001"
         r="3.5599999"
         style="fill:#1f77b4;fill-opacity:0.8;stroke:#1f77b4;stroke-width:0.71;stroke-opacity:0.8"
         id="circle164" />
      <circle
         cx="77.559998"
         cy="209.64999"
         r="3.5599999"
         style="fill:#1f77b4;fill-opacity:0.8;stroke:#1f77b4;stroke-width:0.71;stroke-opacity:0.8"
         id="circle166" />
      <circle
         cx="84.940002"
         cy="252.25999"
         r="3.5599999"
         style="fill:#1f77b4;fill-opacity:0.8;stroke:#1f77b4;stroke-width:0.71;stroke-opacity:0.8"
         id="circle168" />
      <circle
         cx="69.660004"
         cy="260.10001"
         r="3.5599999"
         style="fill:#1f77b4;fill-opacity:0.8;stroke:#1f77b4;stroke-width:0.71;stroke-opacity:0.8"
         id="circle170" />
      <circle
         cx="69.959999"
         cy="221.24001"
         r="3.5599999"
         style="fill:#1f77b4;fill-opacity:0.8;stroke:#1f77b4;stroke-width:0.71;stroke-opacity:0.8"
         id="circle172" />
      <circle
         cx="67.160004"
         cy="253.49001"
         r="3.5599999"
         style="fill:#1f77b4;fill-opacity:0.8;stroke:#1f77b4;stroke-width:0.71;stroke-opacity:0.8"
         id="circle174" />
      <circle
         cx="114.48"
         cy="55.830002"
         r="3.5599999"
         style="fill:#2ca02c;fill-opacity:0.8;stroke:#2ca02c;stroke-width:0.71;stroke-opacity:0.8"
         id="circle176" />
      <circle
         cx="90.370003"
         cy="232.71001"
         r="3.5599999"
         style="fill:#1f77b4;fill-opacity:0.8;stroke:#1f77b4;stroke-width:0.71;stroke-opacity:0.8"
         id="circle178" />
      <polygon
         points="117.97,61.27 116.87,56.79 115.65,52.3 114.32,47.87 112.9,43.59 111.43,39.49 109.91,35.66 108.38,32.15 106.85,29.01 105.35,26.29 103.9,24.03 102.53,22.26 101.25,21.02 100.08,20.32 99.05,20.16 98.16,20.56 97.43,21.51 96.88,22.99 96.5,24.98 96.32,27.46 96.32,30.37 96.5,33.68 96.88,37.35 97.43,41.3 98.16,45.49 99.05,49.85 100.08,54.31 101.25,58.8 102.53,63.27 103.9,67.63 105.35,71.83 106.85,75.8 108.38,79.48 109.91,82.81 111.43,85.75 112.9,88.24 114.32,90.26 115.65,91.77 116.87,92.74 117.97,93.17 118.94,93.05 119.74,92.37 120.39,91.16 120.85,89.42 121.13,87.18 121.23,84.48 121.13,81.36 120.85,77.87 120.39,74.05 119.74,69.97 118.94,65.69 "
         style="fill:#2ca02c;fill-opacity:0.2;stroke:#2ca02c;stroke-width:1.07;stroke-linecap:butt"
         id="polygon180" />
      <polygon
         points="106.6,115.16 104.56,113.68 102.29,113.72 99.83,115.27 97.21,118.32 94.47,122.81 91.66,128.67 88.82,135.83 85.99,144.17 83.21,153.55 80.53,163.85 77.98,174.91 75.61,186.55 73.46,198.61 71.54,210.89 69.9,223.21 68.55,235.39 67.52,247.24 66.83,258.58 66.48,269.24 66.48,279.06 66.83,287.89 67.52,295.59 68.55,302.05 69.9,307.17 71.54,310.87 73.46,313.1 75.61,313.82 77.98,313.02 80.53,310.72 83.21,306.95 85.99,301.76 88.82,295.23 91.66,287.47 94.47,278.6 97.21,268.73 99.83,258.03 102.29,246.66 104.56,234.79 106.6,222.6 108.38,210.27 109.88,198 111.07,185.96 111.93,174.34 112.45,163.32 112.63,153.06 112.45,143.72 111.93,135.44 111.07,128.35 109.88,122.55 108.38,118.13 "
         style="fill:#1f77b4;fill-opacity:0.2;stroke:#1f77b4;stroke-width:1.07;stroke-linecap:butt"
         id="polygon182" />
      <polygon
         points="400.03,200.4 397.74,200.21 395.19,200.02 392.42,199.83 389.48,199.64 386.4,199.46 383.25,199.29 380.05,199.14 376.87,199 373.75,198.88 370.74,198.78 367.88,198.7 365.21,198.64 362.79,198.61 360.63,198.6 358.79,198.61 357.28,198.65 356.12,198.71 355.34,198.79 354.95,198.89 354.95,199.01 355.34,199.15 356.12,199.31 357.28,199.48 358.79,199.65 360.63,199.84 362.79,200.03 365.21,200.22 367.88,200.42 370.74,200.61 373.75,200.79 376.87,200.96 380.05,201.12 383.25,201.27 386.4,201.4 389.48,201.51 392.42,201.6 395.19,201.67 397.74,201.71 400.03,201.74 402.03,201.73 403.72,201.71 405.05,201.66 406.02,201.59 406.61,201.5 406.8,201.39 406.61,201.26 406.02,201.11 405.05,200.95 403.72,200.77 402.03,200.59 "
         style="fill:#ffbb78;fill-opacity:0.2;stroke:#ffbb78;stroke-width:1.07;stroke-linecap:butt"
         id="polygon184" />
    </g>
    <g
       clip-path="url(#cpMC4wMHw1MDQuMDB8MC4wMHwzNjAuMDA=)"
       id="g228"
       transform="matrix(1.389264,0,0,1.389264,76.295738,82.426645)">
      <text
         x="33.560001"
         y="306.37"
         text-anchor="end"
         style="font-size:8.8px;font-family:Arial;fill:#4d4d4d"
         textLength="15.14"
         lengthAdjust="spacingAndGlyphs"
         id="text188">-0.2</text>
      <text
         x="33.560001"
         y="243.22"
         text-anchor="end"
         style="font-size:8.8px;font-family:Arial;fill:#4d4d4d"
         textLength="15.14"
         lengthAdjust="spacingAndGlyphs"
         id="text190">-0.1</text>
      <text
         x="33.560001"
         y="180.06"
         text-anchor="end"
         style="font-size:8.8px;font-family:Arial;fill:#4d4d4d"
         textLength="12.22"
         lengthAdjust="spacingAndGlyphs"
         id="text192">0.0</text>
      <text
         x="33.560001"
         y="116.9"
         text-anchor="end"
         style="font-size:8.8px;font-family:Arial;fill:#4d4d4d"
         textLength="12.22"
         lengthAdjust="spacingAndGlyphs"
         id="text194">0.1</text>
      <text
         x="33.560001"
         y="53.75"
         text-anchor="end"
         style="font-size:8.8px;font-family:Arial;fill:#4d4d4d"
         textLength="12.22"
         lengthAdjust="spacingAndGlyphs"
         id="text196">0.2</text>
      <text
         x="122.07"
         y="339.73999"
         text-anchor="middle"
         style="font-size:8.8px;font-family:Arial;fill:#4d4d4d"
         textLength="17.110001"
         lengthAdjust="spacingAndGlyphs"
         id="text198">0.00</text>
      <text
         x="229.71001"
         y="339.73999"
         text-anchor="middle"
         style="font-size:8.8px;font-family:Arial;fill:#4d4d4d"
         textLength="17.110001"
         lengthAdjust="spacingAndGlyphs"
         id="text200">0.25</text>
      <text
         x="337.35001"
         y="339.73999"
         text-anchor="middle"
         style="font-size:8.8px;font-family:Arial;fill:#4d4d4d"
         textLength="17.110001"
         lengthAdjust="spacingAndGlyphs"
         id="text202">0.50</text>
      <text
         x="231.41"
         y="352.20001"
         text-anchor="middle"
         style="font-size:11px;font-family:Arial"
         textLength="70.379997"
         lengthAdjust="spacingAndGlyphs"
         id="text204">Axis.1 [62.3%]</text>
      <text
         transform="rotate(-90,90.175,76.815)"
         text-anchor="middle"
         style="font-size:11px;font-family:Arial"
         textLength="61.189999"
         lengthAdjust="spacingAndGlyphs"
         id="text206">Axis.2 [21%]</text>
      <text
         x="440.78"
         y="142.27"
         style="font-size:11px;font-family:Arial"
         textLength="17.75"
         lengthAdjust="spacingAndGlyphs"
         id="text208">SBI</text>
      <circle
         cx="449.42001"
         cy="157.55"
         r="3.5599999"
         style="fill:#2ca02c;fill-opacity:0.8;stroke:#2ca02c;stroke-width:0.71;stroke-opacity:0.8"
         id="circle210" />
      <rect
         x="441.48999"
         y="149.62"
         width="15.86"
         height="15.86"
         style="fill:#2ca02c;fill-opacity:0.2;stroke:#2ca02c;stroke-width:1.07;stroke-linecap:butt;stroke-linejoin:miter"
         id="rect212" />
      <circle
         cx="449.42001"
         cy="174.83"
         r="3.5599999"
         style="fill:#1f77b4;fill-opacity:0.8;stroke:#1f77b4;stroke-width:0.71;stroke-opacity:0.8"
         id="circle214" />
      <rect
         x="441.48999"
         y="166.89999"
         width="15.86"
         height="15.86"
         style="fill:#1f77b4;fill-opacity:0.2;stroke:#1f77b4;stroke-width:1.07;stroke-linecap:butt;stroke-linejoin:miter"
         id="rect216" />
      <circle
         cx="449.42001"
         cy="192.11"
         r="3.5599999"
         style="fill:#ffbb78;fill-opacity:0.8;stroke:#ffbb78;stroke-width:0.71;stroke-opacity:0.8"
         id="circle218" />
      <rect
         x="441.48999"
         y="184.17999"
         width="15.86"
         height="15.86"
         style="fill:#ffbb78;fill-opacity:0.2;stroke:#ffbb78;stroke-width:1.07;stroke-linecap:butt;stroke-linejoin:miter"
         id="rect220" />
      <text
         x="463.54001"
         y="160.7"
         style="font-size:8.8px;font-family:Arial"
         textLength="29.5"
         lengthAdjust="spacingAndGlyphs"
         id="text222">AWY2a</text>
      <text
         x="463.54001"
         y="177.98"
         style="font-size:8.8px;font-family:Arial"
         textLength="20.879999"
         lengthAdjust="spacingAndGlyphs"
         id="text224">AY2a</text>
      <text
         x="463.54001"
         y="195.25999"
         style="font-size:8.8px;font-family:Arial"
         textLength="21.049999"
         lengthAdjust="spacingAndGlyphs"
         id="text226">SY2c</text>
    </g>
  </g>
</svg>
