<?xml version="1.0" encoding="UTF-8" standalone="no"?>
<svg
   width="297mm"
   height="210mm"
   viewBox="0 0 841.88976 595.27559"
   version="1.1"
   id="svg250"
   sodipodi:docname="P_2_84.svg"
   inkscape:version="1.2.2 (b0a8486541, 2022-12-01)"
   xmlns:inkscape="http://www.inkscape.org/namespaces/inkscape"
   xmlns:sodipodi="http://sodipodi.sourceforge.net/DTD/sodipodi-0.dtd"
   xmlns="http://www.w3.org/2000/svg"
   xmlns:svg="http://www.w3.org/2000/svg">
  <defs
     id="defs254" />
  <sodipodi:namedview
     id="namedview252"
     pagecolor="#ffffff"
     bordercolor="#666666"
     borderopacity="1.0"
     inkscape:showpageshadow="2"
     inkscape:pageopacity="0.0"
     inkscape:pagecheckerboard="0"
     inkscape:deskcolor="#d1d1d1"
     inkscape:document-units="pt"
     showgrid="false"
     inkscape:zoom="1.1849519"
     inkscape:cx="592.00715"
     inkscape:cy="375.54267"
     inkscape:window-width="2560"
     inkscape:window-height="1369"
     inkscape:window-x="2552"
     inkscape:window-y="-8"
     inkscape:window-maximized="1"
     inkscape:current-layer="g248" />
  <g
     class="svglite"
     id="g248">
    <defs
       id="defs4">
      <style
         type="text/css"
         id="style2"><![CDATA[
    .svglite line, .svglite polyline, .svglite polygon, .svglite path, .svglite rect, .svglite circle {
      fill: none;
      stroke: #000000;
      stroke-linecap: round;
      stroke-linejoin: round;
      stroke-miterlimit: 10.00;
    }
    .svglite text {
      white-space: pre;
    }
    .svglite g.glyphgroup path {
      fill: inherit;
      stroke: none;
    }
  ]]></style>
    </defs>
    <rect
       width="100%"
       height="100%"
       style="fill:#ffffff;stroke:none"
       id="rect6"
       x="0"
       y="0" />
    <defs
       id="defs11">
      <clipPath
         id="cpMC4wMHw1MDQuMDB8MC4wMHwzNjAuMDA=">
        <rect
           x="0"
           y="0"
           width="504"
           height="360"
           id="rect8" />
      </clipPath>
    </defs>
    <g
       clip-path="url(#cpMC4wMHw1MDQuMDB8MC4wMHwzNjAuMDA=)"
       id="g15"
       transform="matrix(1.4018648,0,0,1.4018648,66.458394,74.686576)">
      <rect
         x="0"
         y="0"
         width="504"
         height="360"
         style="fill:#ffffff;stroke:none;stroke-width:1.07"
         id="rect13" />
    </g>
    <defs
       id="defs20">
      <clipPath
         id="cpMzguNDl8Mzg1Ljg5fDUuNDh8MzI4LjUw">
        <rect
           x="38.490002"
           y="5.48"
           width="347.39999"
           height="323.01999"
           id="rect17" />
      </clipPath>
    </defs>
    <g
       clip-path="url(#cpMzguNDl8Mzg1Ljg5fDUuNDh8MzI4LjUw)"
       id="g190"
       transform="matrix(1.4018648,0,0,1.4018648,66.458394,74.686576)">
      <polyline
         points="38.49,276.88 385.89,276.88 "
         style="stroke:#ebebeb;stroke-width:0.53;stroke-linecap:butt"
         id="polyline22" />
      <polyline
         points="38.49,201.89 385.89,201.89 "
         style="stroke:#ebebeb;stroke-width:0.53;stroke-linecap:butt"
         id="polyline24" />
      <polyline
         points="38.49,126.90 385.89,126.90 "
         style="stroke:#ebebeb;stroke-width:0.53;stroke-linecap:butt"
         id="polyline26" />
      <polyline
         points="38.49,51.91 385.89,51.91 "
         style="stroke:#ebebeb;stroke-width:0.53;stroke-linecap:butt"
         id="polyline28" />
      <polyline
         points="41.31,328.50 41.31,5.48 "
         style="stroke:#ebebeb;stroke-width:0.53;stroke-linecap:butt"
         id="polyline30" />
      <polyline
         points="135.82,328.50 135.82,5.48 "
         style="stroke:#ebebeb;stroke-width:0.53;stroke-linecap:butt"
         id="polyline32" />
      <polyline
         points="230.34,328.50 230.34,5.48 "
         style="stroke:#ebebeb;stroke-width:0.53;stroke-linecap:butt"
         id="polyline34" />
      <polyline
         points="324.86,328.50 324.86,5.48 "
         style="stroke:#ebebeb;stroke-width:0.53;stroke-linecap:butt"
         id="polyline36" />
      <polyline
         points="38.49,314.37 385.89,314.37 "
         style="stroke:#ebebeb;stroke-width:1.07;stroke-linecap:butt"
         id="polyline38" />
      <polyline
         points="38.49,239.38 385.89,239.38 "
         style="stroke:#ebebeb;stroke-width:1.07;stroke-linecap:butt"
         id="polyline40" />
      <polyline
         points="38.49,164.39 385.89,164.39 "
         style="stroke:#ebebeb;stroke-width:1.07;stroke-linecap:butt"
         id="polyline42" />
      <polyline
         points="38.49,89.40 385.89,89.40 "
         style="stroke:#ebebeb;stroke-width:1.07;stroke-linecap:butt"
         id="polyline44" />
      <polyline
         points="38.49,14.42 385.89,14.42 "
         style="stroke:#ebebeb;stroke-width:1.07;stroke-linecap:butt"
         id="polyline46" />
      <polyline
         points="88.57,328.50 88.57,5.48 "
         style="stroke:#ebebeb;stroke-width:1.07;stroke-linecap:butt"
         id="polyline48" />
      <polyline
         points="183.08,328.50 183.08,5.48 "
         style="stroke:#ebebeb;stroke-width:1.07;stroke-linecap:butt"
         id="polyline50" />
      <polyline
         points="277.60,328.50 277.60,5.48 "
         style="stroke:#ebebeb;stroke-width:1.07;stroke-linecap:butt"
         id="polyline52" />
      <polyline
         points="372.11,328.50 372.11,5.48 "
         style="stroke:#ebebeb;stroke-width:1.07;stroke-linecap:butt"
         id="polyline54" />
      <circle
         cx="175.47"
         cy="150.14"
         r="3.5599999"
         style="fill:#88ccee;fill-opacity:0.8;stroke:#88ccee;stroke-width:0.71;stroke-opacity:0.8"
         id="circle56" />
      <circle
         cx="186.55"
         cy="178.97"
         r="3.5599999"
         style="fill:#88ccee;fill-opacity:0.8;stroke:#88ccee;stroke-width:0.71;stroke-opacity:0.8"
         id="circle58" />
      <circle
         cx="158.94"
         cy="209.35001"
         r="3.5599999"
         style="fill:#88ccee;fill-opacity:0.8;stroke:#88ccee;stroke-width:0.71;stroke-opacity:0.8"
         id="circle60" />
      <circle
         cx="160.50999"
         cy="211.94"
         r="3.5599999"
         style="fill:#88ccee;fill-opacity:0.8;stroke:#88ccee;stroke-width:0.71;stroke-opacity:0.8"
         id="circle62" />
      <circle
         cx="162.45"
         cy="156.52"
         r="3.5599999"
         style="fill:#88ccee;fill-opacity:0.8;stroke:#88ccee;stroke-width:0.71;stroke-opacity:0.8"
         id="circle64" />
      <circle
         cx="161.00999"
         cy="202.72"
         r="3.5599999"
         style="fill:#88ccee;fill-opacity:0.8;stroke:#88ccee;stroke-width:0.71;stroke-opacity:0.8"
         id="circle66" />
      <circle
         cx="187.28"
         cy="126.86"
         r="3.5599999"
         style="fill:#88ccee;fill-opacity:0.8;stroke:#88ccee;stroke-width:0.71;stroke-opacity:0.8"
         id="circle68" />
      <circle
         cx="192.81"
         cy="221.61"
         r="3.5599999"
         style="fill:#88ccee;fill-opacity:0.8;stroke:#88ccee;stroke-width:0.71;stroke-opacity:0.8"
         id="circle70" />
      <circle
         cx="174.44"
         cy="200.53"
         r="3.5599999"
         style="fill:#88ccee;fill-opacity:0.8;stroke:#88ccee;stroke-width:0.71;stroke-opacity:0.8"
         id="circle72" />
      <circle
         cx="180.84"
         cy="159.28"
         r="3.5599999"
         style="fill:#88ccee;fill-opacity:0.8;stroke:#88ccee;stroke-width:0.71;stroke-opacity:0.8"
         id="circle74" />
      <circle
         cx="156.2"
         cy="95.07"
         r="3.5599999"
         style="fill:#88ccee;fill-opacity:0.8;stroke:#88ccee;stroke-width:0.71;stroke-opacity:0.8"
         id="circle76" />
      <circle
         cx="199.11"
         cy="72.610001"
         r="3.5599999"
         style="fill:#88ccee;fill-opacity:0.8;stroke:#88ccee;stroke-width:0.71;stroke-opacity:0.8"
         id="circle78" />
      <circle
         cx="181.58"
         cy="103.35"
         r="3.5599999"
         style="fill:#88ccee;fill-opacity:0.8;stroke:#88ccee;stroke-width:0.71;stroke-opacity:0.8"
         id="circle80" />
      <circle
         cx="162.23"
         cy="97.690002"
         r="3.5599999"
         style="fill:#88ccee;fill-opacity:0.8;stroke:#88ccee;stroke-width:0.71;stroke-opacity:0.8"
         id="circle82" />
      <circle
         cx="158.78"
         cy="119.35"
         r="3.5599999"
         style="fill:#88ccee;fill-opacity:0.8;stroke:#88ccee;stroke-width:0.71;stroke-opacity:0.8"
         id="circle84" />
      <circle
         cx="166.82001"
         cy="145.74001"
         r="3.5599999"
         style="fill:#88ccee;fill-opacity:0.8;stroke:#88ccee;stroke-width:0.71;stroke-opacity:0.8"
         id="circle86" />
      <circle
         cx="173.02"
         cy="114.43"
         r="3.5599999"
         style="fill:#88ccee;fill-opacity:0.8;stroke:#88ccee;stroke-width:0.71;stroke-opacity:0.8"
         id="circle88" />
      <circle
         cx="168.45"
         cy="124.63"
         r="3.5599999"
         style="fill:#88ccee;fill-opacity:0.8;stroke:#88ccee;stroke-width:0.71;stroke-opacity:0.8"
         id="circle90" />
      <circle
         cx="164.46001"
         cy="196.77"
         r="3.5599999"
         style="fill:#88ccee;fill-opacity:0.8;stroke:#88ccee;stroke-width:0.71;stroke-opacity:0.8"
         id="circle92" />
      <circle
         cx="191.83"
         cy="151.34"
         r="3.5599999"
         style="fill:#44aa99;fill-opacity:0.8;stroke:#44aa99;stroke-width:0.71;stroke-opacity:0.8"
         id="circle94" />
      <circle
         cx="145.31"
         cy="202.59"
         r="3.5599999"
         style="fill:#44aa99;fill-opacity:0.8;stroke:#44aa99;stroke-width:0.71;stroke-opacity:0.8"
         id="circle96" />
      <circle
         cx="167.48"
         cy="218.33"
         r="3.5599999"
         style="fill:#44aa99;fill-opacity:0.8;stroke:#44aa99;stroke-width:0.71;stroke-opacity:0.8"
         id="circle98" />
      <circle
         cx="150.84"
         cy="202.75999"
         r="3.5599999"
         style="fill:#44aa99;fill-opacity:0.8;stroke:#44aa99;stroke-width:0.71;stroke-opacity:0.8"
         id="circle100" />
      <circle
         cx="128.75"
         cy="157.53999"
         r="3.5599999"
         style="fill:#44aa99;fill-opacity:0.8;stroke:#44aa99;stroke-width:0.71;stroke-opacity:0.8"
         id="circle102" />
      <circle
         cx="160.47"
         cy="162.78999"
         r="3.5599999"
         style="fill:#44aa99;fill-opacity:0.8;stroke:#44aa99;stroke-width:0.71;stroke-opacity:0.8"
         id="circle104" />
      <circle
         cx="151.27"
         cy="173.17999"
         r="3.5599999"
         style="fill:#44aa99;fill-opacity:0.8;stroke:#44aa99;stroke-width:0.71;stroke-opacity:0.8"
         id="circle106" />
      <circle
         cx="147.21001"
         cy="211.37"
         r="3.5599999"
         style="fill:#44aa99;fill-opacity:0.8;stroke:#44aa99;stroke-width:0.71;stroke-opacity:0.8"
         id="circle108" />
      <circle
         cx="155.58"
         cy="218.10001"
         r="3.5599999"
         style="fill:#44aa99;fill-opacity:0.8;stroke:#44aa99;stroke-width:0.71;stroke-opacity:0.8"
         id="circle110" />
      <circle
         cx="144.72"
         cy="205.83"
         r="3.5599999"
         style="fill:#44aa99;fill-opacity:0.8;stroke:#44aa99;stroke-width:0.71;stroke-opacity:0.8"
         id="circle112" />
      <circle
         cx="176.64999"
         cy="116.5"
         r="3.5599999"
         style="fill:#44aa99;fill-opacity:0.8;stroke:#44aa99;stroke-width:0.71;stroke-opacity:0.8"
         id="circle114" />
      <circle
         cx="164.81"
         cy="168.14"
         r="3.5599999"
         style="fill:#44aa99;fill-opacity:0.8;stroke:#44aa99;stroke-width:0.71;stroke-opacity:0.8"
         id="circle116" />
      <circle
         cx="190.06"
         cy="171.5"
         r="3.5599999"
         style="fill:#44aa99;fill-opacity:0.8;stroke:#44aa99;stroke-width:0.71;stroke-opacity:0.8"
         id="circle118" />
      <circle
         cx="189.47"
         cy="187.61"
         r="3.5599999"
         style="fill:#ddcc77;fill-opacity:0.8;stroke:#ddcc77;stroke-width:0.71;stroke-opacity:0.8"
         id="circle120" />
      <circle
         cx="169.28999"
         cy="210.23"
         r="3.5599999"
         style="fill:#ddcc77;fill-opacity:0.8;stroke:#ddcc77;stroke-width:0.71;stroke-opacity:0.8"
         id="circle122" />
      <circle
         cx="182.45"
         cy="182.02"
         r="3.5599999"
         style="fill:#ddcc77;fill-opacity:0.8;stroke:#ddcc77;stroke-width:0.71;stroke-opacity:0.8"
         id="circle124" />
      <circle
         cx="193.24001"
         cy="187.98"
         r="3.5599999"
         style="fill:#ddcc77;fill-opacity:0.8;stroke:#ddcc77;stroke-width:0.71;stroke-opacity:0.8"
         id="circle126" />
      <circle
         cx="142.46001"
         cy="192.28999"
         r="3.5599999"
         style="fill:#ddcc77;fill-opacity:0.8;stroke:#ddcc77;stroke-width:0.71;stroke-opacity:0.8"
         id="circle128" />
      <circle
         cx="171.77"
         cy="94.830002"
         r="3.5599999"
         style="fill:#ddcc77;fill-opacity:0.8;stroke:#ddcc77;stroke-width:0.71;stroke-opacity:0.8"
         id="circle130" />
      <circle
         cx="170.25999"
         cy="136.71001"
         r="3.5599999"
         style="fill:#ddcc77;fill-opacity:0.8;stroke:#ddcc77;stroke-width:0.71;stroke-opacity:0.8"
         id="circle132" />
      <circle
         cx="160.50999"
         cy="120.85"
         r="3.5599999"
         style="fill:#ddcc77;fill-opacity:0.8;stroke:#ddcc77;stroke-width:0.71;stroke-opacity:0.8"
         id="circle134" />
      <circle
         cx="169.89"
         cy="149.55"
         r="3.5599999"
         style="fill:#ddcc77;fill-opacity:0.8;stroke:#ddcc77;stroke-width:0.71;stroke-opacity:0.8"
         id="circle136" />
      <circle
         cx="158.87"
         cy="140.78"
         r="3.5599999"
         style="fill:#ddcc77;fill-opacity:0.8;stroke:#ddcc77;stroke-width:0.71;stroke-opacity:0.8"
         id="circle138" />
      <circle
         cx="303.04999"
         cy="208.14"
         r="3.5599999"
         style="fill:#ddcc77;fill-opacity:0.8;stroke:#ddcc77;stroke-width:0.71;stroke-opacity:0.8"
         id="circle140" />
      <circle
         cx="180.67"
         cy="114.44"
         r="3.5599999"
         style="fill:#ddcc77;fill-opacity:0.8;stroke:#ddcc77;stroke-width:0.71;stroke-opacity:0.8"
         id="circle142" />
      <circle
         cx="203.97"
         cy="215.34"
         r="3.5599999"
         style="fill:#ddcc77;fill-opacity:0.8;stroke:#ddcc77;stroke-width:0.71;stroke-opacity:0.8"
         id="circle144" />
      <circle
         cx="288.76999"
         cy="194.22"
         r="3.5599999"
         style="fill:#ddcc77;fill-opacity:0.8;stroke:#ddcc77;stroke-width:0.71;stroke-opacity:0.8"
         id="circle146" />
      <circle
         cx="273.64001"
         cy="185.42999"
         r="3.5599999"
         style="fill:#ddcc77;fill-opacity:0.8;stroke:#ddcc77;stroke-width:0.71;stroke-opacity:0.8"
         id="circle148" />
      <circle
         cx="290.29999"
         cy="179.35001"
         r="3.5599999"
         style="fill:#ddcc77;fill-opacity:0.8;stroke:#ddcc77;stroke-width:0.71;stroke-opacity:0.8"
         id="circle150" />
      <circle
         cx="294.28"
         cy="181.46001"
         r="3.5599999"
         style="fill:#ddcc77;fill-opacity:0.8;stroke:#ddcc77;stroke-width:0.71;stroke-opacity:0.8"
         id="circle152" />
      <circle
         cx="303.29999"
         cy="196.73"
         r="3.5599999"
         style="fill:#ddcc77;fill-opacity:0.8;stroke:#ddcc77;stroke-width:0.71;stroke-opacity:0.8"
         id="circle154" />
      <circle
         cx="183.13"
         cy="193.97"
         r="3.5599999"
         style="fill:#ddcc77;fill-opacity:0.8;stroke:#ddcc77;stroke-width:0.71;stroke-opacity:0.8"
         id="circle156" />
      <circle
         cx="153.83"
         cy="179.98"
         r="3.5599999"
         style="fill:#cc6677;fill-opacity:0.8;stroke:#cc6677;stroke-width:0.71;stroke-opacity:0.8"
         id="circle158" />
      <circle
         cx="191.73"
         cy="169.38"
         r="3.5599999"
         style="fill:#cc6677;fill-opacity:0.8;stroke:#cc6677;stroke-width:0.71;stroke-opacity:0.8"
         id="circle160" />
      <circle
         cx="191.77"
         cy="173.96001"
         r="3.5599999"
         style="fill:#cc6677;fill-opacity:0.8;stroke:#cc6677;stroke-width:0.71;stroke-opacity:0.8"
         id="circle162" />
      <circle
         cx="185.48"
         cy="177.08"
         r="3.5599999"
         style="fill:#cc6677;fill-opacity:0.8;stroke:#cc6677;stroke-width:0.71;stroke-opacity:0.8"
         id="circle164" />
      <circle
         cx="164.75999"
         cy="182"
         r="3.5599999"
         style="fill:#cc6677;fill-opacity:0.8;stroke:#cc6677;stroke-width:0.71;stroke-opacity:0.8"
         id="circle166" />
      <circle
         cx="168.19"
         cy="173.8"
         r="3.5599999"
         style="fill:#cc6677;fill-opacity:0.8;stroke:#cc6677;stroke-width:0.71;stroke-opacity:0.8"
         id="circle168" />
      <circle
         cx="143.99001"
         cy="207.83"
         r="3.5599999"
         style="fill:#cc6677;fill-opacity:0.8;stroke:#cc6677;stroke-width:0.71;stroke-opacity:0.8"
         id="circle170" />
      <circle
         cx="193.2"
         cy="179.50999"
         r="3.5599999"
         style="fill:#332288;fill-opacity:0.8;stroke:#332288;stroke-width:0.71;stroke-opacity:0.8"
         id="circle172" />
      <circle
         cx="151.08"
         cy="200.64"
         r="3.5599999"
         style="fill:#332288;fill-opacity:0.8;stroke:#332288;stroke-width:0.71;stroke-opacity:0.8"
         id="circle174" />
      <circle
         cx="174.66"
         cy="136.87"
         r="3.5599999"
         style="fill:#332288;fill-opacity:0.8;stroke:#332288;stroke-width:0.71;stroke-opacity:0.8"
         id="circle176" />
      <circle
         cx="194.25999"
         cy="167.08"
         r="3.5599999"
         style="fill:#332288;fill-opacity:0.8;stroke:#332288;stroke-width:0.71;stroke-opacity:0.8"
         id="circle178" />
      <polygon
         points="181.19,63.93 179.91,69.14 178.52,75.55 177.04,83.06 175.49,91.58 173.9,100.95 172.3,111.05 170.7,121.72 169.13,132.8 167.61,144.11 166.17,155.49 164.83,166.77 163.61,177.78 162.53,188.34 161.6,198.3 160.84,207.5 160.26,215.81 159.87,223.11 159.67,229.27 159.67,234.21 159.87,237.86 160.26,240.15 160.84,241.05 161.6,240.55 162.53,238.66 163.61,235.4 164.83,230.83 166.17,225.01 167.61,218.03 169.13,210 170.7,201.04 172.3,191.29 173.9,180.88 175.49,169.99 177.04,158.77 178.52,147.4 179.91,136.05 181.19,124.89 182.35,114.09 183.36,103.81 184.2,94.21 184.87,85.43 185.36,77.61 185.66,70.87 185.75,65.31 185.66,61.01 185.36,58.03 184.87,56.43 184.2,56.23 183.36,57.43 182.35,60.01 "
         style="fill:#88ccee;fill-opacity:0.2;stroke:#88ccee;stroke-width:1.07;stroke-linecap:butt"
         id="polygon180" />
      <polygon
         points="314.88,126.47 299.35,120.59 282.49,115.38 264.57,110.93 245.85,107.3 226.62,104.55 207.17,102.72 187.79,101.84 168.78,101.92 150.43,102.96 133.01,104.94 116.79,107.84 102.01,111.61 88.9,116.2 77.65,121.52 68.45,127.51 61.42,134.08 56.67,141.11 54.28,148.51 54.28,156.17 56.67,163.96 61.42,171.77 68.45,179.49 77.65,186.98 88.9,194.15 102.01,200.88 116.79,207.08 133.01,212.63 150.43,217.47 168.78,221.52 187.79,224.71 207.17,227.01 226.62,228.37 245.85,228.77 264.57,228.21 282.49,226.69 299.35,224.24 314.88,220.9 328.85,216.72 341.05,211.75 351.29,206.08 359.43,199.8 365.33,192.98 368.9,185.75 370.1,178.21 368.9,170.47 365.33,162.65 359.43,154.88 351.29,147.26 341.05,139.91 328.85,132.94 "
         style="fill:#ddcc77;fill-opacity:0.2;stroke:#ddcc77;stroke-width:1.07;stroke-linecap:butt"
         id="polygon182" />
      <polygon
         points="177.7,109.75 176.27,112.95 174.72,117.08 173.07,122.1 171.35,127.92 169.58,134.46 167.79,141.61 166.01,149.27 164.26,157.32 162.57,165.64 160.96,174.11 159.47,182.59 158.11,190.95 156.9,199.08 155.87,206.84 155.02,214.12 154.37,220.81 153.94,226.81 153.72,232.03 153.72,236.38 153.94,239.8 154.37,242.24 155.02,243.66 155.87,244.05 156.9,243.39 158.11,241.69 159.47,238.99 160.96,235.31 162.57,230.73 164.26,225.3 166.01,219.11 167.79,212.25 169.58,204.83 171.35,196.96 173.07,188.76 174.72,180.35 176.27,171.86 177.7,163.42 178.99,155.16 180.11,147.2 181.05,139.66 181.8,132.66 182.34,126.31 182.67,120.69 182.78,115.9 182.67,112.01 182.34,109.07 181.8,107.13 181.05,106.23 180.11,106.36 178.99,107.55 "
         style="fill:#44aa99;fill-opacity:0.2;stroke:#44aa99;stroke-width:1.07;stroke-linecap:butt"
         id="polygon184" />
      <polygon
         points="182.63,52.03 180.66,64.17 178.53,77.87 176.25,92.91 173.88,109.08 171.44,126.12 168.98,143.78 166.52,161.79 164.11,179.87 161.79,197.76 159.58,215.19 157.52,231.87 155.65,247.58 153.99,262.06 152.57,275.09 151.4,286.49 150.51,296.07 149.91,303.7 149.6,309.25 149.6,312.64 149.91,313.82 150.51,312.78 151.4,309.52 152.57,304.1 153.99,296.6 155.65,287.13 157.52,275.84 159.58,262.9 161.79,248.5 164.11,232.87 166.52,216.23 168.98,198.85 171.44,180.98 173.88,162.9 176.25,144.88 178.53,127.19 180.66,110.1 182.63,93.87 184.4,78.75 185.95,64.97 187.24,52.73 188.28,42.22 189.02,33.6 189.48,27 189.63,22.52 189.48,20.23 189.02,20.16 188.28,22.32 187.24,26.66 185.95,33.14 184.4,41.64 "
         style="fill:#332288;fill-opacity:0.2;stroke:#332288;stroke-width:1.07;stroke-linecap:butt"
         id="polygon186" />
      <polygon
         points="169.76,179.68 169.49,179.6 169.19,179.58 168.87,179.63 168.54,179.73 168.2,179.89 167.86,180.11 167.52,180.38 167.18,180.7 166.86,181.06 166.55,181.46 166.27,181.89 166.01,182.35 165.78,182.83 165.58,183.31 165.42,183.81 165.29,184.29 165.21,184.77 165.17,185.23 165.17,185.67 165.21,186.07 165.29,186.44 165.42,186.76 165.58,187.03 165.78,187.25 166.01,187.42 166.27,187.53 166.55,187.58 166.86,187.56 167.18,187.49 167.52,187.36 167.86,187.17 168.2,186.92 168.54,186.63 168.87,186.29 169.19,185.91 169.49,185.49 169.76,185.04 170,184.58 170.22,184.09 170.4,183.6 170.54,183.11 170.65,182.63 170.71,182.16 170.73,181.71 170.71,181.29 170.65,180.9 170.54,180.56 170.4,180.26 170.22,180.01 170,179.82 "
         style="fill:#cc6677;fill-opacity:0.2;stroke:#cc6677;stroke-width:1.07;stroke-linecap:butt"
         id="polygon188" />
    </g>
    <g
       clip-path="url(#cpMC4wMHw1MDQuMDB8MC4wMHwzNjAuMDA=)"
       id="g246"
       transform="matrix(1.4018648,0,0,1.4018648,66.458394,74.686576)">
      <text
         x="33.560001"
         y="317.51999"
         text-anchor="end"
         style="font-size:8.8px;font-family:Arial;fill:#4d4d4d"
         textLength="15.14"
         lengthAdjust="spacingAndGlyphs"
         id="text192">-0.6</text>
      <text
         x="33.560001"
         y="242.53"
         text-anchor="end"
         style="font-size:8.8px;font-family:Arial;fill:#4d4d4d"
         textLength="15.14"
         lengthAdjust="spacingAndGlyphs"
         id="text194">-0.3</text>
      <text
         x="33.560001"
         y="167.53999"
         text-anchor="end"
         style="font-size:8.8px;font-family:Arial;fill:#4d4d4d"
         textLength="12.22"
         lengthAdjust="spacingAndGlyphs"
         id="text196">0.0</text>
      <text
         x="33.560001"
         y="92.550003"
         text-anchor="end"
         style="font-size:8.8px;font-family:Arial;fill:#4d4d4d"
         textLength="12.22"
         lengthAdjust="spacingAndGlyphs"
         id="text198">0.3</text>
      <text
         x="33.560001"
         y="17.57"
         text-anchor="end"
         style="font-size:8.8px;font-family:Arial;fill:#4d4d4d"
         textLength="12.22"
         lengthAdjust="spacingAndGlyphs"
         id="text200">0.6</text>
      <text
         x="88.57"
         y="339.73999"
         text-anchor="middle"
         style="font-size:8.8px;font-family:Arial;fill:#4d4d4d"
         textLength="15.14"
         lengthAdjust="spacingAndGlyphs"
         id="text202">-0.5</text>
      <text
         x="183.08"
         y="339.73999"
         text-anchor="middle"
         style="font-size:8.8px;font-family:Arial;fill:#4d4d4d"
         textLength="12.22"
         lengthAdjust="spacingAndGlyphs"
         id="text204">0.0</text>
      <text
         x="277.60001"
         y="339.73999"
         text-anchor="middle"
         style="font-size:8.8px;font-family:Arial;fill:#4d4d4d"
         textLength="12.22"
         lengthAdjust="spacingAndGlyphs"
         id="text206">0.5</text>
      <text
         x="372.10999"
         y="339.73999"
         text-anchor="middle"
         style="font-size:8.8px;font-family:Arial;fill:#4d4d4d"
         textLength="12.22"
         lengthAdjust="spacingAndGlyphs"
         id="text208">1.0</text>
      <text
         x="212.19"
         y="352.20001"
         text-anchor="middle"
         style="font-size:11px;font-family:Arial"
         textLength="70.379997"
         lengthAdjust="spacingAndGlyphs"
         id="text210">Axis.1 [62.3%]</text>
      <text
         transform="rotate(-90,90.175,76.815)"
         text-anchor="middle"
         style="font-size:11px;font-family:Arial"
         textLength="61.189999"
         lengthAdjust="spacingAndGlyphs"
         id="text212">Axis.2 [21%]</text>
      <text
         x="402.32999"
         y="124.99"
         style="font-size:11px;font-family:Arial"
         textLength="60.560001"
         lengthAdjust="spacingAndGlyphs"
         id="text214">Sample_site</text>
      <circle
         cx="410.97"
         cy="140.27"
         r="3.5599999"
         style="fill:#88ccee;fill-opacity:0.8;stroke:#88ccee;stroke-width:0.71;stroke-opacity:0.8"
         id="circle216" />
      <rect
         x="403.04001"
         y="132.34"
         width="15.86"
         height="15.86"
         style="fill:#88ccee;fill-opacity:0.2;stroke:#88ccee;stroke-width:1.07;stroke-linecap:butt;stroke-linejoin:miter"
         id="rect218" />
      <circle
         cx="410.97"
         cy="157.55"
         r="3.5599999"
         style="fill:#ddcc77;fill-opacity:0.8;stroke:#ddcc77;stroke-width:0.71;stroke-opacity:0.8"
         id="circle220" />
      <rect
         x="403.04001"
         y="149.62"
         width="15.86"
         height="15.86"
         style="fill:#ddcc77;fill-opacity:0.2;stroke:#ddcc77;stroke-width:1.07;stroke-linecap:butt;stroke-linejoin:miter"
         id="rect222" />
      <circle
         cx="410.97"
         cy="174.83"
         r="3.5599999"
         style="fill:#44aa99;fill-opacity:0.8;stroke:#44aa99;stroke-width:0.71;stroke-opacity:0.8"
         id="circle224" />
      <rect
         x="403.04001"
         y="166.89999"
         width="15.86"
         height="15.86"
         style="fill:#44aa99;fill-opacity:0.2;stroke:#44aa99;stroke-width:1.07;stroke-linecap:butt;stroke-linejoin:miter"
         id="rect226" />
      <circle
         cx="410.97"
         cy="192.11"
         r="3.5599999"
         style="fill:#332288;fill-opacity:0.8;stroke:#332288;stroke-width:0.71;stroke-opacity:0.8"
         id="circle228" />
      <rect
         x="403.04001"
         y="184.17999"
         width="15.86"
         height="15.86"
         style="fill:#332288;fill-opacity:0.2;stroke:#332288;stroke-width:1.07;stroke-linecap:butt;stroke-linejoin:miter"
         id="rect230" />
      <circle
         cx="410.97"
         cy="209.39"
         r="3.5599999"
         style="fill:#cc6677;fill-opacity:0.8;stroke:#cc6677;stroke-width:0.71;stroke-opacity:0.8"
         id="circle232" />
      <rect
         x="403.04001"
         y="201.46001"
         width="15.86"
         height="15.86"
         style="fill:#cc6677;fill-opacity:0.2;stroke:#cc6677;stroke-width:1.07;stroke-linecap:butt;stroke-linejoin:miter"
         id="rect234" />
      <text
         x="425.09"
         y="143.42"
         style="font-size:8.8px;font-family:Arial"
         textLength="20.52"
         lengthAdjust="spacingAndGlyphs"
         id="text236">Farm</text>
      <text
         x="425.09"
         y="160.7"
         style="font-size:8.8px;font-family:Arial"
         textLength="18.09"
         lengthAdjust="spacingAndGlyphs"
         id="text238">Hide</text>
      <text
         x="425.09"
         y="177.98"
         style="font-size:8.8px;font-family:Arial"
         textLength="29.33"
         lengthAdjust="spacingAndGlyphs"
         id="text240">Lairage</text>
      <text
         x="425.09"
         y="195.25999"
         style="font-size:8.8px;font-family:Arial"
         textLength="67.949997"
         lengthAdjust="spacingAndGlyphs"
         id="text242">Post_intervention</text>
      <text
         x="425.09"
         y="212.53999"
         style="font-size:8.8px;font-family:Arial"
         textLength="64.029999"
         lengthAdjust="spacingAndGlyphs"
         id="text244">Pre_intervention</text>
    </g>
  </g>
</svg>
